<?xml version="1.0" encoding="utf-8"?>
<!-- Generator: Adobe Illustrator 14.0.0, SVG Export Plug-In . SVG Version: 6.00 Build 43363)  -->
<!DOCTYPE svg PUBLIC "-//W3C//DTD SVG 1.1//EN" "http://www.w3.org/Graphics/SVG/1.1/DTD/svg11.dtd">
<svg version="1.1" id="Ebene_1" xmlns="http://www.w3.org/2000/svg" xmlns:xlink="http://www.w3.org/1999/xlink" x="0px" y="0px"
	 width="60px" height="60px" viewBox="0 0 60 60" enable-background="new 0 0 60 60" xml:space="preserve">
<path fill="#FFFFFF" d="M2,42.891c1.643-0.975,6.596-3.691,9-5.004c1.217-0.664,3.504-1.033,5.059,0.699
	c0,0.001,0.002,0.002,0.002,0.003c1.125,1.3,3.414,3.747,4.642,5.054c0.004,0.004,0.008,0.008,0.012,0.012
	c0.08,0.086,0.158,0.168,0.23,0.243c0.42,0.442,0.946,0.889,2.043,0.891c1.942-0.012,5.891-1.112,12.254-7.55
	c9.596-9.706,9.92-13.389,8.869-14.393C43.063,21.842,40,18.579,40,16.989c0-1.726,0.33-3.253,0.748-4.387
	c1.121-3.068,3.217-8.346,4.19-10.605C45.328,1.093,46.352,0.03,47.953,0H51c0.988,0,2.184,0.438,3.129,1.255
	C56.428,3.141,60,6.991,60,11.633V15c0,1.434-0.227,3.483-0.775,4.975c-1.883,5.38-7.201,16.705-16,25.046
	C32.016,55.648,21.854,60,12.824,60c-5.74,0-9.584-3.572-11.469-6.111C0.367,52.528,0,51.077,0,50c0-1.245,0-2.938,0-4
	C0,45,0.871,43.541,2,42.891"/>
</svg>
