<?xml version="1.0" encoding="utf-8"?>
<!-- Generator: Adobe Illustrator 14.0.0, SVG Export Plug-In . SVG Version: 6.00 Build 43363)  -->
<!DOCTYPE svg PUBLIC "-//W3C//DTD SVG 1.1//EN" "http://www.w3.org/Graphics/SVG/1.1/DTD/svg11.dtd">
<svg version="1.1" id="Ebene_1" xmlns="http://www.w3.org/2000/svg" xmlns:xlink="http://www.w3.org/1999/xlink" x="0px" y="0px"
	 width="132px" height="48px" viewBox="0 0 132 48" enable-background="new 0 0 132 48" xml:space="preserve">
<path fill-rule="evenodd" clip-rule="evenodd" fill="#FFFFFF" d="M61.655,21.97H48.345c-2.116,0-3.83-1.84-3.83-4.105v-3.951
	c0-2.267,1.714-3.948,3.83-3.948h13.311c2.115,0,3.83,1.712,3.83,3.979v3.92C65.485,20.13,63.771,21.97,61.655,21.97z
	 M51.142,11.913h-3.67v1.119h1.236v6.585h1.195v-6.585h1.238V11.913z M54.31,14.214h-1.061v4.316c-0.1,0.125-0.209,0.226-0.33,0.305
	c-0.118,0.081-0.219,0.119-0.295,0.119c-0.1,0-0.172-0.026-0.219-0.09c-0.043-0.059-0.065-0.158-0.065-0.29v-4.36h-1.061v4.75
	c0,0.342,0.063,0.593,0.187,0.763c0.125,0.17,0.309,0.255,0.555,0.255c0.199,0,0.404-0.059,0.615-0.184
	c0.214-0.118,0.416-0.293,0.613-0.523v0.622h1.061V14.214z M58.755,15.413c0-0.465-0.088-0.821-0.266-1.062s-0.434-0.207-0.77-0.207
	c-0.164,0-0.625,0.045-0.787,0.136c-0.16,0.092-0.312,0.224-0.455,0.396v-2.638h-1.072v7.86h1.072v-0.435
	c0.139,0.176,0.291,0.303,0.453,0.386c0.162,0.081,0.645,0.122,0.854,0.122c0.314,0,0.557-0.263,0.721-0.477
	c0.166-0.217,0.25-0.525,0.25-0.927V15.413z M62.612,17.91h-1.092v0.26c0,0.336-0.037,0.55-0.105,0.648
	c-0.07,0.099-0.193,0.146-0.369,0.146c-0.168,0-0.289-0.056-0.359-0.173c-0.068-0.114-0.104-0.324-0.104-0.622v-1.07h2.029v-1.451
	c0-0.538-0.129-0.951-0.391-1.24c-0.262-0.285-0.633-0.429-1.119-0.429c-0.477,0-0.861,0.152-1.162,0.464
	c-0.301,0.311-0.451,0.715-0.451,1.205v2.555c0,0.548,0.139,0.979,0.41,1.289s0.648,0.467,1.123,0.467
	c0.527,0,0.926-0.146,1.189-0.438c0.27-0.295,0.4-0.734,0.4-1.317V17.91z M60.583,15.64c0-0.239,0.035-0.412,0.109-0.511
	c0.074-0.104,0.195-0.158,0.363-0.158c0.162,0,0.281,0.054,0.354,0.158c0.072,0.099,0.111,0.271,0.111,0.511v0.573h-0.938V15.64z
	 M56.985,19.081c-0.09,0-0.174-0.021-0.256-0.062c-0.082-0.041-0.166-0.11-0.252-0.203v-3.54c0.072-0.077,0.145-0.139,0.219-0.174
	c0.074-0.038,0.15-0.056,0.225-0.056c0.145,0,0.551,0.05,0.629,0.148c0.076,0.099,0.111,0.243,0.111,0.438v2.935
	c0,0.184-0.031,0.312-0.092,0.392C57.509,19.042,57.114,19.081,56.985,19.081z M59.714,8.296c-0.219,0.255-0.447,0.451-0.688,0.584
	c-0.238,0.132-0.469,0.201-0.691,0.201c-0.277,0-0.484-0.096-0.625-0.283c-0.139-0.185-0.209-0.463-0.209-0.837V2.728h1.191v4.801
	c0,0.147,0.029,0.255,0.078,0.321c0.049,0.067,0.131,0.101,0.242,0.101c0.088,0,0.199-0.044,0.334-0.131
	c0.133-0.089,0.258-0.201,0.367-0.337V2.728h1.195V8.99h-1.195V8.296z M54.818,9.147c-0.522,0-0.94-0.158-1.254-0.473
	c-0.313-0.316-0.47-0.737-0.47-1.27V4.159c0-0.486,0.16-0.872,0.482-1.158c0.32-0.288,0.753-0.431,1.297-0.431
	c0.493,0,0.899,0.151,1.216,0.453c0.313,0.303,0.472,0.695,0.472,1.172V7.43c0,0.536-0.154,0.954-0.463,1.26
	C55.788,8.995,55.362,9.147,54.818,9.147z M55.345,4.112c0-0.137-0.049-0.247-0.146-0.332c-0.097-0.084-0.225-0.126-0.384-0.126
	c-0.145,0-0.263,0.042-0.354,0.126c-0.091,0.085-0.137,0.195-0.137,0.332v3.412c0,0.171,0.043,0.304,0.128,0.398
	c0.085,0.096,0.206,0.142,0.363,0.142c0.162,0,0.291-0.048,0.386-0.144c0.096-0.096,0.145-0.229,0.145-0.396V4.112z M51.433,8.99
	h-1.345V5.127L48.486,0h1.354l0.873,3.395h0.085L51.632,0h1.365l-1.564,4.969V8.99z"/>
<path fill-rule="evenodd" clip-rule="evenodd" fill="#FFFFFF" d="M15.994,7.875h-3.745l0.006-2.474c0-0.779,0.872-1.275,1.242-1.275
	c0.369,0,2.497,0,2.497,0V1.001l-2.896,0.001c-3.474,0-4.595,2.738-4.595,4.373v2.5H6.006v3.749h2.497c0,4.531,0,9.373,0,9.373
	l3.752-0.002c0,0-0.006-4.895-0.006-9.371h3.121L15.994,7.875z"/>
<path fill="#FFFFFF" d="M36.952,9.593h4.818v7.766c0,2.01-1.554,3.639-3.47,3.639H27.698c-1.916,0-3.469-1.629-3.469-3.639V9.593
	h4.795c-0.522,0.77-0.524,1.225-0.524,2.242c0,2.598,2.01,4.708,4.488,4.708s4.488-2.109,4.488-4.708
	C37.477,10.817,37.475,10.362,36.952,9.593z M41.771,6.141v2.39h-5.585c-0.813-0.866-1.945-1.405-3.197-1.405
	s-2.384,0.539-3.197,1.405h-5.562v-2.39c0-1.227-0.01-2.055,0.877-2.714v3.065h1.076v-3.99c0.162-0.068,0.812,0.01,0.983-0.032
	v4.043l0.942-0.004V2.504c0.099-0.003,1.026-0.002,1.026-0.002v4.043h0.877V2.502h8.289C40.217,2.502,41.771,4.131,41.771,6.141z
	 M39.817,5.027c0-0.322-0.25-0.584-0.557-0.584h-1.753c-0.308,0-0.557,0.262-0.557,0.584v1.882c0,0.322,0.249,0.583,0.557,0.583
	h1.753c0.307,0,0.557-0.261,0.557-0.583V5.608V5.027z M29.53,11.835c0-1.086,0.458-2.062,1.182-2.727
	c0.253-0.233,0.539-0.429,0.85-0.577c0.436-0.207,0.918-0.324,1.427-0.324s0.991,0.117,1.427,0.324
	c0.311,0.148,0.597,0.344,0.851,0.577c0.723,0.665,1.181,1.641,1.181,2.727c0,1.999-1.552,3.625-3.458,3.625
	S29.53,13.833,29.53,11.835z M30.444,11.835c0,1.479,1.144,2.68,2.555,2.68c1.412,0,2.557-1.201,2.557-2.68
	c0-1.482-1.145-2.682-2.557-2.682C31.588,9.153,30.444,10.353,30.444,11.835z"/>
<path fill-rule="evenodd" clip-rule="evenodd" fill="#FFFFFF" d="M127.655,21.97h-13.311c-2.116,0-3.83-1.84-3.83-4.105v-3.951
	c0-2.267,1.714-3.948,3.83-3.948h13.311c2.115,0,3.83,1.712,3.83,3.979v3.92C131.485,20.13,129.771,21.97,127.655,21.97z
	 M117.142,11.913h-3.67v1.119h1.236v6.585h1.195v-6.585h1.238V11.913z M120.31,14.214h-1.061v4.316
	c-0.1,0.125-0.209,0.226-0.33,0.305c-0.118,0.081-0.219,0.119-0.295,0.119c-0.1,0-0.172-0.026-0.219-0.09
	c-0.043-0.059-0.065-0.158-0.065-0.29v-4.36h-1.061v4.75c0,0.342,0.063,0.593,0.187,0.763c0.125,0.17,0.309,0.255,0.555,0.255
	c0.199,0,0.404-0.059,0.615-0.184c0.214-0.118,0.416-0.293,0.613-0.523v0.622h1.061V14.214z M124.755,15.413
	c0-0.465-0.088-0.821-0.266-1.062s-0.434-0.207-0.77-0.207c-0.164,0-0.625,0.045-0.787,0.136c-0.16,0.092-0.312,0.224-0.455,0.396
	v-2.638h-1.072v7.86h1.072v-0.435c0.139,0.176,0.291,0.303,0.453,0.386c0.162,0.081,0.645,0.122,0.854,0.122
	c0.314,0,0.557-0.263,0.721-0.477c0.166-0.217,0.25-0.525,0.25-0.927V15.413z M128.612,17.91h-1.092v0.26
	c0,0.336-0.037,0.55-0.105,0.648c-0.07,0.099-0.193,0.146-0.369,0.146c-0.168,0-0.289-0.056-0.359-0.173
	c-0.068-0.114-0.104-0.324-0.104-0.622v-1.07h2.029v-1.451c0-0.538-0.129-0.951-0.391-1.24c-0.262-0.285-0.633-0.429-1.119-0.429
	c-0.477,0-0.861,0.152-1.162,0.464c-0.301,0.311-0.451,0.715-0.451,1.205v2.555c0,0.548,0.139,0.979,0.41,1.289
	s0.648,0.467,1.123,0.467c0.527,0,0.926-0.146,1.189-0.438c0.27-0.295,0.4-0.734,0.4-1.317V17.91z M126.583,15.64
	c0-0.239,0.035-0.412,0.109-0.511c0.074-0.104,0.195-0.158,0.363-0.158c0.162,0,0.281,0.054,0.354,0.158
	c0.072,0.099,0.111,0.271,0.111,0.511v0.573h-0.938V15.64z M122.985,19.081c-0.09,0-0.174-0.021-0.256-0.062
	c-0.082-0.041-0.166-0.11-0.252-0.203v-3.54c0.072-0.077,0.145-0.139,0.219-0.174c0.074-0.038,0.15-0.056,0.225-0.056
	c0.145,0,0.551,0.05,0.629,0.148c0.076,0.099,0.111,0.243,0.111,0.438v2.935c0,0.184-0.031,0.312-0.092,0.392
	C123.509,19.042,123.114,19.081,122.985,19.081z M125.714,8.296c-0.219,0.255-0.447,0.451-0.688,0.584
	c-0.238,0.132-0.469,0.201-0.691,0.201c-0.277,0-0.484-0.096-0.625-0.283c-0.139-0.185-0.209-0.463-0.209-0.837V2.728h1.191v4.801
	c0,0.147,0.029,0.255,0.078,0.321c0.049,0.067,0.131,0.101,0.242,0.101c0.088,0,0.199-0.044,0.334-0.131
	c0.133-0.089,0.258-0.201,0.367-0.337V2.728h1.195V8.99h-1.195V8.296z M120.818,9.147c-0.522,0-0.94-0.158-1.254-0.473
	c-0.313-0.316-0.47-0.737-0.47-1.27V4.159c0-0.486,0.16-0.872,0.482-1.158c0.32-0.288,0.753-0.431,1.297-0.431
	c0.493,0,0.899,0.151,1.216,0.453c0.313,0.303,0.472,0.695,0.472,1.172V7.43c0,0.536-0.154,0.954-0.463,1.26
	C121.788,8.995,121.362,9.147,120.818,9.147z M121.345,4.112c0-0.137-0.049-0.247-0.146-0.332c-0.097-0.084-0.225-0.126-0.384-0.126
	c-0.145,0-0.263,0.042-0.354,0.126c-0.091,0.085-0.137,0.195-0.137,0.332v3.412c0,0.171,0.043,0.304,0.128,0.398
	c0.085,0.096,0.206,0.142,0.363,0.142c0.162,0,0.291-0.048,0.386-0.144c0.096-0.096,0.145-0.229,0.145-0.396V4.112z M117.433,8.99
	h-1.345V5.127L114.486,0h1.354l0.873,3.395h0.085L117.632,0h1.365l-1.564,4.969V8.99z"/>
<path fill-rule="evenodd" clip-rule="evenodd" fill="#FFFFFF" d="M81.994,7.875h-3.745l0.006-2.474c0-0.779,0.872-1.275,1.242-1.275
	c0.369,0,2.497,0,2.497,0V1.001l-2.896,0.001c-3.474,0-4.595,2.738-4.595,4.373v2.5h-2.497v3.749h2.497c0,4.531,0,9.373,0,9.373
	l3.752-0.002c0,0-0.006-4.895-0.006-9.371h3.121L81.994,7.875z"/>
<path fill="#FFFFFF" d="M102.952,9.593h4.818v7.766c0,2.01-1.554,3.639-3.47,3.639H93.698c-1.916,0-3.469-1.629-3.469-3.639V9.593
	h4.795c-0.522,0.77-0.524,1.225-0.524,2.242c0,2.598,2.01,4.708,4.488,4.708s4.488-2.109,4.488-4.708
	C103.477,10.817,103.475,10.362,102.952,9.593z M107.771,6.141v2.39h-5.585c-0.813-0.866-1.945-1.405-3.197-1.405
	s-2.384,0.539-3.197,1.405h-5.562v-2.39c0-1.227-0.01-2.055,0.877-2.714v3.065h1.076v-3.99c0.162-0.068,0.812,0.01,0.983-0.032
	v4.043l0.942-0.004V2.504c0.099-0.003,1.026-0.002,1.026-0.002v4.043h0.877V2.502h8.289C106.217,2.502,107.771,4.131,107.771,6.141z
	 M105.817,5.027c0-0.322-0.25-0.584-0.557-0.584h-1.753c-0.308,0-0.557,0.262-0.557,0.584v1.882c0,0.322,0.249,0.583,0.557,0.583
	h1.753c0.307,0,0.557-0.261,0.557-0.583V5.608V5.027z M95.53,11.835c0-1.086,0.458-2.062,1.182-2.727
	c0.253-0.233,0.539-0.429,0.85-0.577c0.436-0.207,0.918-0.324,1.427-0.324s0.991,0.117,1.427,0.324
	c0.311,0.148,0.597,0.344,0.851,0.577c0.723,0.665,1.181,1.641,1.181,2.727c0,1.999-1.552,3.625-3.458,3.625
	S95.53,13.833,95.53,11.835z M96.444,11.835c0,1.479,1.144,2.68,2.555,2.68c1.412,0,2.557-1.201,2.557-2.68
	c0-1.482-1.145-2.682-2.557-2.682C97.588,9.153,96.444,10.353,96.444,11.835z"/>
<path fill-rule="evenodd" clip-rule="evenodd" d="M61.655,48H48.345c-2.116,0-3.83-1.84-3.83-4.105v-3.951
	c0-2.267,1.714-3.947,3.83-3.947h13.311c2.115,0,3.83,1.712,3.83,3.979v3.92C65.485,46.16,63.771,48,61.655,48z M51.142,37.942
	h-3.67v1.119h1.236v6.585h1.195v-6.585h1.238V37.942z M54.31,40.244h-1.061v4.316c-0.1,0.125-0.209,0.226-0.33,0.305
	c-0.118,0.081-0.219,0.119-0.295,0.119c-0.1,0-0.172-0.026-0.219-0.09c-0.043-0.059-0.065-0.158-0.065-0.29v-4.36h-1.061v4.75
	c0,0.342,0.063,0.593,0.187,0.763c0.125,0.17,0.309,0.255,0.555,0.255c0.199,0,0.404-0.059,0.615-0.184
	c0.214-0.118,0.416-0.293,0.613-0.523v0.622h1.061V40.244z M58.755,41.442c0-0.465-0.088-0.821-0.266-1.062s-0.434-0.207-0.77-0.207
	c-0.164,0-0.625,0.045-0.787,0.136c-0.16,0.092-0.312,0.224-0.455,0.396v-2.638h-1.072v7.86h1.072v-0.435
	c0.139,0.176,0.291,0.303,0.453,0.386C57.093,45.959,57.575,46,57.784,46c0.314,0,0.557-0.263,0.721-0.477
	c0.166-0.217,0.25-0.525,0.25-0.927V41.442z M62.612,43.939h-1.092v0.26c0,0.336-0.037,0.55-0.105,0.648
	c-0.07,0.099-0.193,0.146-0.369,0.146c-0.168,0-0.289-0.056-0.359-0.173c-0.068-0.114-0.104-0.324-0.104-0.622v-1.07h2.029v-1.451
	c0-0.538-0.129-0.951-0.391-1.24c-0.262-0.285-0.633-0.429-1.119-0.429c-0.477,0-0.861,0.152-1.162,0.464
	c-0.301,0.311-0.451,0.715-0.451,1.205v2.555c0,0.548,0.139,0.979,0.41,1.289s0.648,0.467,1.123,0.467
	c0.527,0,0.926-0.146,1.189-0.438c0.27-0.295,0.4-0.734,0.4-1.317V43.939z M60.583,41.67c0-0.239,0.035-0.412,0.109-0.511
	c0.074-0.104,0.195-0.158,0.363-0.158c0.162,0,0.281,0.054,0.354,0.158c0.072,0.099,0.111,0.271,0.111,0.511v0.573h-0.938V41.67z
	 M56.985,45.11c-0.09,0-0.174-0.021-0.256-0.062c-0.082-0.041-0.166-0.11-0.252-0.203v-3.54c0.072-0.077,0.145-0.139,0.219-0.174
	c0.074-0.038,0.15-0.056,0.225-0.056c0.145,0,0.551,0.05,0.629,0.148c0.076,0.099,0.111,0.243,0.111,0.438v2.935
	c0,0.184-0.031,0.312-0.092,0.392C57.509,45.071,57.114,45.11,56.985,45.11z M59.714,34.326c-0.219,0.255-0.447,0.451-0.688,0.584
	c-0.238,0.132-0.469,0.201-0.691,0.201c-0.277,0-0.484-0.096-0.625-0.283c-0.139-0.185-0.209-0.463-0.209-0.837v-5.233h1.191v4.801
	c0,0.146,0.029,0.254,0.078,0.32c0.049,0.067,0.131,0.101,0.242,0.101c0.088,0,0.199-0.044,0.334-0.132
	c0.133-0.089,0.258-0.2,0.367-0.337v-4.753h1.195v6.262h-1.195V34.326z M54.818,35.178c-0.522,0-0.94-0.158-1.254-0.473
	c-0.313-0.316-0.47-0.737-0.47-1.271v-3.246c0-0.486,0.16-0.872,0.482-1.157c0.32-0.288,0.753-0.432,1.297-0.432
	c0.493,0,0.899,0.151,1.216,0.453c0.313,0.303,0.472,0.695,0.472,1.172v3.235c0,0.536-0.154,0.954-0.463,1.261
	C55.788,35.024,55.362,35.178,54.818,35.178z M55.345,30.142c0-0.137-0.049-0.247-0.146-0.332c-0.097-0.085-0.225-0.126-0.384-0.126
	c-0.145,0-0.263,0.041-0.354,0.126c-0.091,0.085-0.137,0.195-0.137,0.332v3.411c0,0.172,0.043,0.305,0.128,0.398
	c0.085,0.096,0.206,0.142,0.363,0.142c0.162,0,0.291-0.048,0.386-0.144c0.096-0.096,0.145-0.229,0.145-0.396V30.142z M51.433,35.02
	h-1.345v-3.863l-1.602-5.127h1.354l0.873,3.395h0.085l0.833-3.395h1.365l-1.564,4.969V35.02z"/>
<path fill-rule="evenodd" clip-rule="evenodd" d="M15.994,33.905h-3.745l0.006-2.474c0-0.779,0.872-1.275,1.242-1.275
	c0.369,0,2.497,0,2.497,0v-3.125l-2.896,0.001c-3.474,0-4.595,2.738-4.595,4.373v2.5H6.006v3.749h2.497c0,4.531,0,9.373,0,9.373
	l3.752-0.002c0,0-0.006-4.895-0.006-9.371h3.121L15.994,33.905z"/>
<path d="M36.952,35.623h4.818v7.766c0,2.01-1.554,3.639-3.47,3.639H27.698c-1.916,0-3.469-1.629-3.469-3.639v-7.766h4.795
	c-0.522,0.77-0.524,1.225-0.524,2.242c0,2.598,2.01,4.707,4.488,4.707s4.488-2.109,4.488-4.707
	C37.477,36.848,37.475,36.393,36.952,35.623z M41.771,32.171v2.39h-5.585c-0.813-0.866-1.945-1.405-3.197-1.405
	s-2.384,0.539-3.197,1.405h-5.562v-2.39c0-1.227-0.01-2.055,0.877-2.714v3.065h1.076v-3.99c0.162-0.068,0.812,0.01,0.983-0.032
	v4.043l0.942-0.004v-4.005c0.099-0.003,1.026-0.002,1.026-0.002v4.043h0.877v-4.043h8.289
	C40.217,28.532,41.771,30.161,41.771,32.171z M39.817,31.057c0-0.322-0.25-0.584-0.557-0.584h-1.753
	c-0.308,0-0.557,0.262-0.557,0.584v1.882c0,0.322,0.249,0.583,0.557,0.583h1.753c0.307,0,0.557-0.261,0.557-0.583v-1.301V31.057z
	 M29.53,37.865c0-1.086,0.458-2.062,1.182-2.728c0.253-0.233,0.539-0.429,0.85-0.577c0.436-0.207,0.918-0.324,1.427-0.324
	s0.991,0.117,1.427,0.324c0.311,0.148,0.597,0.344,0.851,0.577c0.723,0.665,1.181,1.642,1.181,2.728
	c0,1.998-1.552,3.625-3.458,3.625S29.53,39.863,29.53,37.865z M30.444,37.865c0,1.479,1.144,2.68,2.555,2.68
	c1.412,0,2.557-1.201,2.557-2.68c0-1.482-1.145-2.683-2.557-2.683C31.588,35.183,30.444,36.383,30.444,37.865z"/>
<path fill-rule="evenodd" clip-rule="evenodd" fill="#FFDD02" d="M127.655,48h-13.311c-2.116,0-3.83-1.84-3.83-4.105v-3.951
	c0-2.267,1.714-3.947,3.83-3.947h13.311c2.115,0,3.83,1.712,3.83,3.979v3.92C131.485,46.16,129.771,48,127.655,48z M117.142,37.942
	h-3.67v1.119h1.236v6.585h1.195v-6.585h1.238V37.942z M120.31,40.244h-1.061v4.316c-0.1,0.125-0.209,0.226-0.33,0.305
	c-0.118,0.081-0.219,0.119-0.295,0.119c-0.1,0-0.172-0.026-0.219-0.09c-0.043-0.059-0.065-0.158-0.065-0.29v-4.36h-1.061v4.75
	c0,0.342,0.063,0.593,0.187,0.763c0.125,0.17,0.309,0.255,0.555,0.255c0.199,0,0.404-0.059,0.615-0.184
	c0.214-0.118,0.416-0.293,0.613-0.523v0.622h1.061V40.244z M124.755,41.442c0-0.465-0.088-0.821-0.266-1.062
	s-0.434-0.207-0.77-0.207c-0.164,0-0.625,0.045-0.787,0.136c-0.16,0.092-0.312,0.224-0.455,0.396v-2.638h-1.072v7.86h1.072v-0.435
	c0.139,0.176,0.291,0.303,0.453,0.386c0.162,0.081,0.645,0.122,0.854,0.122c0.314,0,0.557-0.263,0.721-0.477
	c0.166-0.217,0.25-0.525,0.25-0.927V41.442z M128.612,43.939h-1.092v0.26c0,0.336-0.037,0.55-0.105,0.648
	c-0.07,0.099-0.193,0.146-0.369,0.146c-0.168,0-0.289-0.056-0.359-0.173c-0.068-0.114-0.104-0.324-0.104-0.622v-1.07h2.029v-1.451
	c0-0.538-0.129-0.951-0.391-1.24c-0.262-0.285-0.633-0.429-1.119-0.429c-0.477,0-0.861,0.152-1.162,0.464
	c-0.301,0.311-0.451,0.715-0.451,1.205v2.555c0,0.548,0.139,0.979,0.41,1.289s0.648,0.467,1.123,0.467
	c0.527,0,0.926-0.146,1.189-0.438c0.27-0.295,0.4-0.734,0.4-1.317V43.939z M126.583,41.67c0-0.239,0.035-0.412,0.109-0.511
	c0.074-0.104,0.195-0.158,0.363-0.158c0.162,0,0.281,0.054,0.354,0.158c0.072,0.099,0.111,0.271,0.111,0.511v0.573h-0.938V41.67z
	 M122.985,45.11c-0.09,0-0.174-0.021-0.256-0.062c-0.082-0.041-0.166-0.11-0.252-0.203v-3.54c0.072-0.077,0.145-0.139,0.219-0.174
	c0.074-0.038,0.15-0.056,0.225-0.056c0.145,0,0.551,0.05,0.629,0.148c0.076,0.099,0.111,0.243,0.111,0.438v2.935
	c0,0.184-0.031,0.312-0.092,0.392C123.509,45.071,123.114,45.11,122.985,45.11z M125.714,34.326
	c-0.219,0.255-0.447,0.451-0.688,0.584c-0.238,0.132-0.469,0.201-0.691,0.201c-0.277,0-0.484-0.096-0.625-0.283
	c-0.139-0.185-0.209-0.463-0.209-0.837v-5.233h1.191v4.801c0,0.146,0.029,0.254,0.078,0.32c0.049,0.067,0.131,0.101,0.242,0.101
	c0.088,0,0.199-0.044,0.334-0.132c0.133-0.089,0.258-0.2,0.367-0.337v-4.753h1.195v6.262h-1.195V34.326z M120.818,35.178
	c-0.522,0-0.94-0.158-1.254-0.473c-0.313-0.316-0.47-0.737-0.47-1.271v-3.246c0-0.486,0.16-0.872,0.482-1.157
	c0.32-0.288,0.753-0.432,1.297-0.432c0.493,0,0.899,0.151,1.216,0.453c0.313,0.303,0.472,0.695,0.472,1.172v3.235
	c0,0.536-0.154,0.954-0.463,1.261C121.788,35.024,121.362,35.178,120.818,35.178z M121.345,30.142c0-0.137-0.049-0.247-0.146-0.332
	c-0.097-0.085-0.225-0.126-0.384-0.126c-0.145,0-0.263,0.041-0.354,0.126c-0.091,0.085-0.137,0.195-0.137,0.332v3.411
	c0,0.172,0.043,0.305,0.128,0.398c0.085,0.096,0.206,0.142,0.363,0.142c0.162,0,0.291-0.048,0.386-0.144
	c0.096-0.096,0.145-0.229,0.145-0.396V30.142z M117.433,35.02h-1.345v-3.863l-1.602-5.127h1.354l0.873,3.395h0.085l0.833-3.395
	h1.365l-1.564,4.969V35.02z"/>
<path fill-rule="evenodd" clip-rule="evenodd" fill="#FFDD02" d="M81.994,33.905h-3.745l0.006-2.474
	c0-0.779,0.872-1.275,1.242-1.275c0.369,0,2.497,0,2.497,0v-3.125l-2.896,0.001c-3.474,0-4.595,2.738-4.595,4.373v2.5h-2.497v3.749
	h2.497c0,4.531,0,9.373,0,9.373l3.752-0.002c0,0-0.006-4.895-0.006-9.371h3.121L81.994,33.905z"/>
<path fill="#FFDD02" d="M102.952,35.623h4.818v7.766c0,2.01-1.554,3.639-3.47,3.639H93.698c-1.916,0-3.469-1.629-3.469-3.639v-7.766
	h4.795c-0.522,0.77-0.524,1.225-0.524,2.242c0,2.598,2.01,4.707,4.488,4.707s4.488-2.109,4.488-4.707
	C103.477,36.848,103.475,36.393,102.952,35.623z M107.771,32.171v2.39h-5.585c-0.813-0.866-1.945-1.405-3.197-1.405
	s-2.384,0.539-3.197,1.405h-5.562v-2.39c0-1.227-0.01-2.055,0.877-2.714v3.065h1.076v-3.99c0.162-0.068,0.812,0.01,0.983-0.032
	v4.043l0.942-0.004v-4.005c0.099-0.003,1.026-0.002,1.026-0.002v4.043h0.877v-4.043h8.289
	C106.217,28.532,107.771,30.161,107.771,32.171z M105.817,31.057c0-0.322-0.25-0.584-0.557-0.584h-1.753
	c-0.308,0-0.557,0.262-0.557,0.584v1.882c0,0.322,0.249,0.583,0.557,0.583h1.753c0.307,0,0.557-0.261,0.557-0.583v-1.301V31.057z
	 M95.53,37.865c0-1.086,0.458-2.062,1.182-2.728c0.253-0.233,0.539-0.429,0.85-0.577c0.436-0.207,0.918-0.324,1.427-0.324
	s0.991,0.117,1.427,0.324c0.311,0.148,0.597,0.344,0.851,0.577c0.723,0.665,1.181,1.642,1.181,2.728
	c0,1.998-1.552,3.625-3.458,3.625S95.53,39.863,95.53,37.865z M96.444,37.865c0,1.479,1.144,2.68,2.555,2.68
	c1.412,0,2.557-1.201,2.557-2.68c0-1.482-1.145-2.683-2.557-2.683C97.588,35.183,96.444,36.383,96.444,37.865z"/>
</svg>
